# xmcd CD database file
#
# Track frame offsets:
#	150
#	18590
#	36620
#
# Disc length: 773 seconds
#
# Revision: 0
# Processed by: cddbd v1.5PL3 Copyright (c) Steve Scherf et al.
# Submitted via: CDex 1.40Beta9
#
DISCID=23030303
DTITLE=TAMAMIZU - みにくい反逆児/風の生まれる場所/青く、ただ青く
DYEAR=2004
DGENRE=
TTITLE0=みにくい反逆児
TTITLE1=風の生まれる場所
TTITLE2=青く、ただ青く
EXTD=YEAR: 2004
EXTT0=
EXTT1=
EXTT2=
PLAYORDER=
